<svg width="58" height="59" viewBox="0 0 58 59" fill="none" xmlns="http://www.w3.org/2000/svg">
<path id="Vector" opacity="0.95" fill-rule="evenodd" clip-rule="evenodd" d="M28.0988 0.0359075C22.588 0.237453 17.5092 1.83614 13.0046 4.78713C11.2456 5.93941 10.062 6.9015 8.49615 8.45186C7.31744 9.61895 6.63933 10.3851 5.77398 11.5273C2.75192 15.5165 0.814239 20.2663 0.214523 25.1553C0.0455568 26.533 0 27.2959 0 28.7481C0 31.1758 0.245412 33.2639 0.79211 35.4878C1.86999 39.8725 3.83104 43.7129 6.80204 47.2574C7.51099 48.1033 9.47227 50.0413 10.3294 50.743C13.2785 53.1573 16.4779 54.918 19.978 56.0525C22.9057 57.0015 25.8142 57.453 29 57.453C31.5912 57.453 33.7668 57.1874 36.2017 56.5737C37.2505 56.3095 38.5622 55.9045 38.5622 55.8451C38.5622 55.7933 37.857 53.4596 37.8337 53.4344C37.8248 53.4248 37.574 53.4965 37.2763 53.5937C32.7551 55.0699 27.7832 55.2998 23.1175 54.2481C16.452 52.7458 10.6053 48.7072 6.86137 43.0195C2.65269 36.6256 1.48274 28.7939 3.63364 21.4137C5.36009 15.49 9.29333 10.2519 14.5815 6.8338C20.5581 2.97083 27.8995 1.67414 34.8825 3.2481C44.7776 5.47844 52.5805 13.2287 54.7831 23.0147C56.0262 28.5375 55.4239 34.4321 53.1018 39.4722C52.9263 39.8532 52.7878 40.1693 52.794 40.1747C52.8377 40.2125 55.0414 41.2859 55.0753 41.2859C55.134 41.2859 55.511 40.4825 55.9123 39.502C56.8301 37.2599 57.4929 34.7261 57.7855 32.3409C57.9545 30.9632 58 30.2003 58 28.7481C58 26.2411 57.7521 24.1971 57.1606 21.8271C56.0992 17.5744 54.1162 13.7203 51.198 10.2388C50.489 9.39295 48.5277 7.45489 47.6706 6.75322C42.9165 2.86107 37.4169 0.619633 31.4281 0.133139C30.4933 0.0571689 28.8382 0.00884973 28.0988 0.0359075ZM22.5417 5.62933C18.4534 6.76858 14.9081 8.81251 11.9242 11.7503C11.1845 12.4786 10.1258 13.643 10.1258 13.7284C10.1258 13.7648 11.7228 14.707 12.5557 15.162C13.5953 15.7299 16.3283 17.0036 16.5062 17.0031C16.5353 17.003 16.6789 16.6184 16.8253 16.1483C18.1767 11.8092 20.2809 8.21325 22.7511 6.02137C23.0452 5.76036 23.3268 5.5161 23.3769 5.47853C23.5228 5.36907 23.3895 5.3931 22.5417 5.62933ZM34.6231 5.47853C35.1538 5.87677 36.1616 6.86839 36.7414 7.56278C38.5487 9.72721 40.1361 12.7905 41.1454 16.0617C41.2757 16.4842 41.3859 16.8352 41.3904 16.8418C41.431 16.9029 44.3878 15.5113 45.5714 14.8741C46.3026 14.4804 47.6726 13.6961 47.7439 13.6305C47.858 13.5252 45.7605 11.3593 44.6698 10.456C41.887 8.15146 38.8566 6.56645 35.4363 5.62641C34.5779 5.39047 34.4826 5.37313 34.6231 5.47853ZM27.4453 5.77855C25.2564 6.37357 23.1361 8.24343 21.4046 11.106C20.6567 12.3424 19.7456 14.3275 19.1984 15.9131C18.8575 16.9006 18.6179 17.7478 18.6662 17.7943C18.7343 17.8596 20.301 18.3204 21.2122 18.5431C23.2423 19.0392 25.2759 19.34 27.1038 19.4146L27.8986 19.447V12.5509C27.8986 8.75805 27.893 5.65649 27.8861 5.65847C27.8791 5.6605 27.6809 5.71452 27.4453 5.77855ZM30.1014 12.5505V19.439L30.5645 19.407C32.4745 19.2751 34.2325 19.0067 36.1091 18.5605C37.5436 18.2193 39.3132 17.676 39.3132 17.5765C39.3132 17.4587 38.8062 15.8971 38.544 15.2079C38.1422 14.1511 37.8363 13.451 37.3795 12.5432C35.5286 8.86429 33.0935 6.4546 30.5439 5.77925L30.1014 5.66199V12.5505ZM48.8002 15.5381C47.6871 16.2631 44.463 17.9204 42.8677 18.5878C42.3859 18.7893 41.9832 18.9604 41.9728 18.9679C41.9624 18.9753 42.0351 19.3783 42.1344 19.8631C42.3872 21.0982 42.5981 22.422 42.7431 23.6816C42.8655 24.7466 43.0179 26.7633 43.0179 27.3206V27.6083H48.0994H53.1809V27.3343C53.1809 27.1836 53.1469 26.7321 53.1052 26.3309C52.7204 22.6219 51.4974 19.1116 49.4885 15.9502C49.285 15.63 49.1033 15.3695 49.0845 15.3715C49.0659 15.3735 48.938 15.4484 48.8002 15.5381ZM8.46422 16.0215C6.72919 18.776 5.58042 21.8049 5.07533 24.957C4.95102 25.7329 4.81911 26.9567 4.81911 27.3343V27.6083H9.9006H14.9821V27.3206C14.9821 26.8169 15.1296 24.7907 15.2336 23.8669C15.3685 22.667 15.5466 21.502 15.7659 20.3836C15.8659 19.8737 15.9574 19.3894 15.969 19.3077L15.9904 19.159L15.1233 18.7922C13.4021 18.0644 11.2433 16.9631 9.63683 15.9935C9.24399 15.7564 8.89183 15.5506 8.85435 15.5364C8.80925 15.5193 8.6768 15.6839 8.46422 16.0215ZM39.4133 19.886C38.7065 20.1272 37.1888 20.548 36.2593 20.7603C34.3315 21.2006 32.8513 21.4137 30.4894 21.5913L30.1014 21.6205V24.6144V27.6083H35.4583H40.8151L40.8147 27.2242C40.8139 26.4565 40.6449 24.4747 40.4629 23.0987C40.2999 21.8671 39.9388 19.8435 39.8692 19.772C39.8525 19.7548 39.6473 19.8062 39.4133 19.886ZM18.0676 20.0138C18.0386 20.1134 17.8761 20.944 17.7645 21.5624C17.5003 23.0268 17.1864 26.0949 17.1853 27.2242L17.1849 27.6083H22.5417H27.8986V24.6177V21.6269L27.06 21.5929C24.5354 21.4901 21.4671 20.9498 18.8621 20.1493C18.4644 20.0271 18.1287 19.9271 18.1159 19.9271C18.1032 19.9271 18.0815 19.9661 18.0676 20.0138ZM4.81911 30.1123C4.81911 30.5337 4.94492 31.7252 5.07533 32.5392C5.46688 34.9826 6.22865 37.3055 7.37487 39.5514C7.74884 40.2842 8.43717 41.4714 8.72865 41.8864L8.80838 41.9999L9.62982 41.5074C11.5063 40.3825 14.2447 39.0112 15.8169 38.4091C15.9233 38.3682 15.9241 38.3609 15.8544 38.0651C15.6593 37.2371 15.3255 35.0459 15.1824 33.6542C15.0891 32.7459 14.9837 31.0247 14.9829 30.3959L14.9821 29.7888H9.9006H4.81911V30.1123ZM17.1584 30.1233C17.1718 30.3073 17.1951 30.7923 17.2102 31.2011C17.2773 33.0082 17.5898 35.6435 17.9407 37.3622C17.9846 37.5772 18.01 37.6201 18.0778 37.5942C18.3697 37.4831 19.7203 37.0903 20.4507 36.9042C22.5952 36.3579 25.0589 35.9848 27.06 35.9034L27.8986 35.8693V32.8291V29.7888H22.5164H17.1342L17.1584 30.1233ZM30.1014 32.8323V35.8757L30.4894 35.9048C31.2786 35.9638 32.1356 36.0372 32.3617 36.0652L32.5945 36.0939L32.2415 34.9608C31.899 33.8613 31.8883 33.8115 31.8836 33.2825C31.879 32.7641 31.8868 32.7205 32.0433 32.3934C32.3501 31.7519 32.782 31.3648 33.4044 31.1733C33.772 31.0602 34.3279 31.0398 34.6631 31.127C34.7838 31.1584 36.1517 31.8196 37.703 32.5965C39.2544 33.3732 40.5361 33.9964 40.5513 33.9813C40.6142 33.9191 40.7638 31.9717 40.8343 30.2968L40.8557 29.7888H35.4786H30.1014V32.8323ZM43.0179 30.3359C43.0179 31.1033 42.9351 32.4038 42.8066 33.6542C42.7463 34.2402 42.6961 34.8045 42.6948 34.9082L42.6925 35.0968L46.7226 37.1244C48.9392 38.2397 50.7712 39.1528 50.7937 39.1536C50.8497 39.1554 51.2093 38.3829 51.5426 37.5444C52.1445 36.0305 52.6196 34.342 52.8783 32.7974C53.0471 31.7896 53.1809 30.6028 53.1809 30.1123V29.7888H48.0994H43.0179V30.3359ZM33.7789 32.983C33.7112 33.0499 33.6559 33.1616 33.6559 33.2312C33.6559 33.4279 40.4573 55.8644 40.5589 56.0029C40.6551 56.1342 40.8231 56.1953 40.998 56.163C41.0574 56.152 42.1357 55.2843 43.3941 54.2348C45.276 52.6653 45.6933 52.3385 45.7444 52.3937C45.7786 52.4306 46.9506 53.8211 48.3486 55.4838C49.7468 57.1464 50.9589 58.5782 51.0421 58.6655C51.2217 58.8538 51.4242 58.9102 51.5964 58.8196C51.8518 58.6854 56.3453 54.8933 56.3915 54.773C56.4215 54.6949 56.4214 54.5993 56.3911 54.5134C56.3568 54.4161 52.2276 49.4476 50.998 48.0241C50.9414 47.9585 51.2372 47.6943 53.1889 46.0666C54.4298 45.0317 55.4764 44.1409 55.5146 44.0871C55.6029 43.9628 55.6013 43.7161 55.5115 43.5988C55.4733 43.5491 50.6714 41.1128 44.8406 38.1848C37.0051 34.2502 34.195 32.8613 34.0704 32.8613C33.958 32.8613 33.8607 32.9019 33.7789 32.983ZM26.672 38.0969C24.5505 38.2624 22.9325 38.5222 21.0148 39.0058C20.0509 39.2488 18.5897 39.6811 18.528 39.7414C18.4501 39.8177 19.2244 42.2178 19.7337 43.4786C21.1852 47.0725 23.1307 49.7573 25.3563 51.2383C26.0651 51.7099 27.0586 52.1425 27.7121 52.2638L27.8986 52.2985V45.1815V38.0648L27.3854 38.0731C27.1031 38.0776 26.7822 38.0884 26.672 38.0969ZM30.1014 45.1771V52.2985L30.2879 52.2638C31.19 52.0963 32.3374 51.5193 33.3806 50.7089C34.1184 50.1357 35.1734 48.9775 35.8701 47.9759L36.0941 47.6539L34.7001 43.0479C33.9334 40.5147 33.2891 38.4262 33.2683 38.4071C33.1967 38.341 31.7993 38.1773 30.5394 38.0872L30.1014 38.0558V45.1771ZM15.7509 40.7919C14.8969 41.1598 13.2539 41.9531 12.554 42.3353C11.7239 42.7886 10.1258 43.7314 10.1258 43.7678C10.1258 43.8532 11.1845 45.0177 11.9242 45.746C14.6217 48.4019 17.7648 50.3205 21.3402 51.4938C22.8226 51.9802 22.7621 51.9926 22.1103 51.3364C20.7792 49.9961 19.7061 48.4492 18.662 46.3654C17.8151 44.6751 17.2564 43.2737 16.7359 41.5337C16.5932 41.0567 16.4613 40.6308 16.4427 40.5874C16.4139 40.52 16.3112 40.5505 15.7509 40.7919ZM36.6806 50.491C36.6028 50.5932 36.2679 50.9528 35.9362 51.29C35.5073 51.7261 35.3693 51.8936 35.4583 51.8696C36.1416 51.6859 37.21 51.3169 37.1922 51.271C37.1802 51.2401 37.1083 51.0102 37.0325 50.76C36.9566 50.5098 36.8782 50.3052 36.8582 50.3052C36.8382 50.3052 36.7582 50.3888 36.6806 50.491Z" fill="white"/>
</svg>
