<svg width="47" height="47" viewBox="0 0 47 47" fill="none" xmlns="http://www.w3.org/2000/svg">
<g id="basil:picture-outline">
<path id="Vector" d="M25.4581 22.5208C25.4581 21.7417 25.7675 20.9946 26.3184 20.4437C26.8693 19.8928 27.6165 19.5833 28.3956 19.5833C29.1746 19.5833 29.9218 19.8928 30.4727 20.4437C31.0236 20.9946 31.3331 21.7417 31.3331 22.5208C31.3331 23.2999 31.0236 24.0471 30.4727 24.5979C29.9218 25.1488 29.1746 25.4583 28.3956 25.4583C27.6165 25.4583 26.8693 25.1488 26.3184 24.5979C25.7675 24.0471 25.4581 23.2999 25.4581 22.5208ZM21.8077 25.66C21.6757 25.4488 21.4921 25.2746 21.2742 25.1538C21.0563 25.0331 20.8113 24.9697 20.5622 24.9697C20.3131 24.9697 20.0681 25.0331 19.8502 25.1538C19.6323 25.2746 19.4487 25.4488 19.3167 25.66L14.4209 33.4934C14.2822 33.7157 14.2055 33.971 14.1987 34.233C14.192 34.4949 14.2554 34.7539 14.3825 34.9831C14.5096 35.2122 14.6956 35.4032 14.9214 35.5362C15.1471 35.6693 15.4044 35.7395 15.6664 35.7396H31.3331C31.6058 35.7396 31.8732 35.6636 32.1052 35.5202C32.3372 35.3768 32.5248 35.1716 32.6467 34.9277C32.7687 34.6837 32.8204 34.4106 32.7959 34.1389C32.7714 33.8672 32.6717 33.6078 32.5081 33.3896L29.5706 29.4729C29.4337 29.2905 29.2563 29.1424 29.0524 29.0405C28.8485 28.9385 28.6236 28.8854 28.3956 28.8854C28.1675 28.8854 27.9426 28.9385 27.7387 29.0405C27.5348 29.1424 27.3574 29.2905 27.2205 29.4729L25.5677 31.676L21.8077 25.66Z" fill="#5D2EDC"/>
<path id="Vector_2" fill-rule="evenodd" clip-rule="evenodd" d="M13.7087 4.40625C12.2804 4.40625 10.9106 4.97364 9.90059 5.9836C8.89063 6.99356 8.32324 8.36337 8.32324 9.79167V37.2083C8.32324 38.6366 8.89063 40.0064 9.90059 41.0164C10.9106 42.0264 12.2804 42.5938 13.7087 42.5938H33.292C34.7203 42.5938 36.0901 42.0264 37.1001 41.0164C38.11 40.0064 38.6774 38.6366 38.6774 37.2083V15.604C38.6774 14.8579 38.4346 14.1333 37.9842 13.538L32.1131 5.76729C31.7936 5.34452 31.3805 5.00158 30.9061 4.76542C30.4318 4.52927 29.9091 4.40632 29.3792 4.40625H13.7087ZM11.2607 9.79167C11.2607 8.44042 12.3574 7.34375 13.7087 7.34375H27.9066V15.9545C27.9066 16.7653 28.5646 17.4233 29.3753 17.4233H35.7399V37.2083C35.7399 38.5596 34.6432 39.6562 33.292 39.6562H13.7087C12.3574 39.6562 11.2607 38.5596 11.2607 37.2083V9.79167Z" fill="#5D2EDC"/>
</g>
</svg>
