<svg width="22" height="32" viewBox="0 0 22 32" fill="none" xmlns="http://www.w3.org/2000/svg">
<path d="M5.70605 26.7754C6.7998 26.3789 7.60645 26.1191 8.12598 25.9961C8.95996 25.7773 9.77344 25.668 10.5664 25.668C11.0586 25.668 11.5371 25.709 12.002 25.791C12.4805 25.873 12.9863 25.9893 13.5195 26.1396L14.3604 26.4062C14.7295 26.5293 15.0371 26.6113 15.2832 26.6523C15.543 26.6797 15.7617 26.6934 15.9395 26.6934C16.5684 26.6934 17.3066 26.5156 18.1543 26.1602C18.6465 25.9551 19.2617 25.6406 20 25.2168L21.6816 29.79C20.998 30.2412 20.041 30.6787 18.8105 31.1025C17.5801 31.5264 16.3975 31.7383 15.2627 31.7383C14.6611 31.7383 14.0322 31.6631 13.376 31.5127C12.7197 31.3623 12.0088 31.1641 11.2432 30.918L10.0742 30.5283C9.56836 30.3643 9.15137 30.2412 8.82324 30.1592C8.27637 30.0498 7.71582 29.9951 7.1416 29.9951C6.52637 29.9951 5.86328 30.1182 5.15234 30.3643C4.6875 30.542 3.83301 30.918 2.58887 31.4922L0.353516 27.4111C1.33789 26.8779 2.35645 26.0234 3.40918 24.8477C4.46191 23.6582 4.98828 22.4961 4.98828 21.3613C4.98828 20.7598 4.87891 20.0762 4.66016 19.3105C4.53711 18.873 4.33203 18.2852 4.04492 17.5469H0.394531V15.25H2.73242C2.10352 14.0195 1.63867 12.9395 1.33789 12.0098C1.03711 11.0664 0.886719 10.0547 0.886719 8.97461C0.886719 6.86914 1.75488 4.98242 3.49121 3.31445C5.24121 1.64648 7.72949 0.8125 10.9561 0.8125C13.6357 0.8125 15.96 1.55762 17.9287 3.04785C19.8975 4.52441 20.9434 7.02637 21.0664 10.5537H15.5088C15.3721 9.2002 15.0576 8.10645 14.5654 7.27246C13.8408 6.11035 12.6172 5.5293 10.8945 5.5293C9.62305 5.5293 8.61816 5.92578 7.87988 6.71875C7.1416 7.49805 6.77246 8.40039 6.77246 9.42578C6.77246 10.041 6.90234 10.6904 7.16211 11.374C7.42188 12.0439 8.00293 13.3359 8.90527 15.25H14.791V17.5469H9.78711C9.8418 18.0801 9.88281 18.5244 9.91016 18.8799C9.95117 19.2354 9.97168 19.5908 9.97168 19.9463C9.97168 21.2588 9.5752 22.4756 8.78223 23.5967C8.27637 24.2939 7.25098 25.3535 5.70605 26.7754Z" fill="#5C5580"/>
</svg>
