<svg width="84" height="57" viewBox="0 0 84 57" fill="none" xmlns="http://www.w3.org/2000/svg">
<path id="Vector" opacity="0.95" fill-rule="evenodd" clip-rule="evenodd" d="M13.7166 0.924878C13.5775 0.992506 13.5398 1.04466 13.2919 1.51095C13.1707 1.73905 12.9466 2.15897 12.794 2.4441C12.0439 3.84474 11.2278 5.37264 10.8556 6.07302C10.7268 6.31538 10.5053 6.72947 10.3633 6.99321C10.1042 7.47466 9.8129 8.01991 9.69879 8.23742C9.6651 8.30157 9.59611 8.42988 9.54542 8.52254C9.49474 8.61521 9.32324 8.93598 9.16441 9.23537C9.00556 9.53476 8.83381 9.85555 8.78273 9.94815C8.69702 10.1036 8.33246 10.7854 7.63917 12.0867C7.48728 12.3718 7.26005 12.7975 7.13422 13.0328C7.0084 13.268 6.87775 13.513 6.8439 13.5771C6.81003 13.6412 6.61976 13.9971 6.42105 14.3677C6.02467 15.107 6.03107 15.0951 5.71429 15.6896C5.59276 15.9178 5.39929 16.2794 5.28433 16.4932C5.1694 16.7071 5.04767 16.9345 5.01387 16.9987C4.98006 17.0628 4.84947 17.3078 4.72369 17.543C4.59788 17.7782 4.39851 18.1515 4.28064 18.3725C3.75706 19.3539 3.11602 20.5513 3.03167 20.7054C2.98677 20.7873 2.5046 21.6897 1.97914 22.6754C1.86893 22.8821 1.7475 23.1095 1.70934 23.1808C1.63114 23.3269 1.23049 24.0763 0.836352 24.8138C-0.0411619 26.4557 0.00192304 26.3662 2.84044e-05 26.5524C-0.00157097 26.7074 0.0644951 26.8847 0.167027 27.0006C0.216681 27.0567 0.395713 27.1897 0.564878 27.2962C0.734042 27.4027 1.04961 27.6041 1.26614 27.7438C1.48268 27.8834 1.85361 28.1219 2.09043 28.2738C2.32726 28.4257 2.62623 28.6179 2.75479 28.701C2.88335 28.7841 3.03837 28.8835 3.09927 28.922C3.16017 28.9606 3.43698 29.1379 3.71441 29.3163C3.99184 29.4946 4.42368 29.7721 4.67404 29.933C4.9244 30.0937 5.2289 30.2896 5.3507 30.3681C5.47249 30.4467 5.62197 30.5425 5.68288 30.5811C5.74377 30.6196 5.91426 30.7292 6.06175 30.8247C6.38298 31.0325 6.49754 31.0716 6.65514 31.0273C6.90794 30.956 6.89706 30.9713 7.49189 29.8554C7.67807 29.5061 7.99911 28.9054 8.2053 28.5205C8.61998 27.7463 8.77443 27.4575 8.85672 27.3022C9.0012 27.0296 9.72352 25.676 9.91483 25.3193C10.2837 24.6315 10.7983 23.6687 11.0719 23.1549C11.3411 22.6489 11.8067 21.7777 12.2838 20.8868C12.4328 20.6088 12.6543 20.1947 12.7762 19.9666C12.8981 19.7385 13.0668 19.4236 13.1512 19.2668C13.2355 19.1099 13.4319 18.7425 13.5877 18.4502C13.7435 18.158 14.0145 17.6506 14.1898 17.3227C14.3651 16.9948 14.5453 16.6565 14.59 16.571C14.6349 16.4855 14.7657 16.2405 14.8808 16.0266C14.996 15.8128 15.1863 15.457 15.3037 15.2361C15.5409 14.7895 15.5162 14.8357 16.0173 13.9011C16.216 13.5304 16.4096 13.1688 16.4477 13.0975C16.4856 13.0263 16.613 12.7872 16.7308 12.5662C16.9098 12.2303 17.0908 11.8917 17.4514 11.2183C17.4781 11.1684 17.5772 10.9827 17.6715 10.8055C17.7659 10.6283 17.9345 10.3134 18.0462 10.1056C18.158 9.89785 18.2773 9.67537 18.3112 9.61122C18.3453 9.54707 18.4727 9.30795 18.5945 9.07984C19.1364 8.06476 19.385 7.59859 19.6034 7.18762C19.7323 6.94526 19.9748 6.49263 20.1425 6.18179C20.4768 5.56197 20.5171 5.44608 20.473 5.2293C20.4221 4.97968 20.3377 4.87701 20.0157 4.67324C19.9074 4.60474 19.6694 4.45279 19.4867 4.33557C19.304 4.21836 18.9552 3.99476 18.7116 3.83869C18.468 3.6826 17.9698 3.36217 17.6043 3.12659C16.6738 2.52668 16.6101 2.48588 16.2511 2.25907C16.0751 2.14798 15.8038 1.97364 15.6482 1.87169C15.1665 1.5561 14.3632 1.04196 14.219 0.95689C14.0552 0.860205 13.8735 0.848619 13.7166 0.924878ZM69.8831 0.903519C69.8296 0.926096 69.283 1.27206 68.3906 1.8482C68.1876 1.97926 67.562 2.38106 67.0004 2.7411C66.4387 3.10112 65.8574 3.47458 65.7086 3.57101C65.5597 3.66746 65.0614 3.98805 64.6013 4.2835C64.1412 4.57892 63.7333 4.85163 63.6949 4.88953C63.6053 4.97787 63.5622 5.06623 63.5289 5.2293C63.4844 5.44802 63.5249 5.56383 63.8714 6.20967C64.2878 6.98559 64.2993 7.00721 64.4909 7.36906C64.5814 7.54014 64.7751 7.90174 64.9213 8.17262C65.1496 8.59572 65.4704 9.19571 65.6906 9.61122C65.7245 9.67537 65.8712 9.94949 66.0165 10.2204C66.3718 10.883 67.008 12.0726 67.2711 12.5662C67.3888 12.7872 67.5162 13.0263 67.5542 13.0975C67.7161 13.4013 68.4215 14.7208 68.8637 15.5471C69.1768 16.1324 70.0027 17.6788 70.4141 18.4502C70.5699 18.7425 70.7664 19.1099 70.8507 19.2668C71.0825 19.6978 71.4276 20.3428 71.6205 20.7054C71.7153 20.8835 71.8898 21.2101 72.0081 21.4311C72.2381 21.8605 72.6643 22.6581 72.9914 23.2715C73.2128 23.6868 73.7532 24.6967 74.0871 25.3193C74.2593 25.6405 74.8358 26.7207 75.1454 27.3022C75.1954 27.3962 75.4238 27.823 75.5823 28.1187C75.6166 28.1829 75.807 28.5386 76.0052 28.9093C76.2034 29.28 76.5145 29.8616 76.6964 30.2018C76.8783 30.5421 77.0546 30.8493 77.0882 30.8846C77.1754 30.9764 77.2705 31.0224 77.409 31.0397C77.5618 31.0587 77.6142 31.0363 77.9991 30.7876C78.1683 30.6783 78.5669 30.4223 78.8849 30.2187C79.203 30.0152 79.5573 29.7876 79.6723 29.7131C79.7874 29.6385 80.0144 29.4925 80.1767 29.3886C80.3391 29.2848 80.6436 29.089 80.8534 28.9535C81.0631 28.8181 81.2847 28.6757 81.3455 28.637C81.5096 28.5328 82.2858 28.034 82.7358 27.7436C82.9523 27.6038 83.2765 27.3964 83.4561 27.2826C83.6388 27.1669 83.8148 27.0348 83.8552 26.983C83.9911 26.8093 84.037 26.5538 83.9686 26.3519C83.9508 26.2997 83.8222 26.0431 83.6825 25.7817C82.9994 24.5024 82.0541 22.7345 81.8137 22.2865C81.4998 21.7019 80.9487 20.6723 80.7176 20.2388C80.6074 20.0321 80.3894 19.6238 80.2334 19.3315C80.0773 19.0393 79.85 18.6136 79.7283 18.3855C79.6065 18.1573 79.404 17.7782 79.2782 17.543C79.1524 17.3078 79.0218 17.0628 78.9881 16.9987C78.9542 16.9345 78.8325 16.7071 78.7176 16.4932C78.6026 16.2794 78.4122 15.9236 78.2945 15.7026C78.1768 15.4817 78.0553 15.2542 78.0245 15.1971C77.958 15.0737 77.2136 13.6816 77.1445 13.5512C77.1181 13.5013 76.9935 13.268 76.8677 13.0328C76.7419 12.7975 76.5145 12.3718 76.3624 12.0867C76.2104 11.8015 75.9204 11.2591 75.718 10.8814C75.239 9.98761 75.2603 10.0274 75.0041 9.54642C74.8825 9.31832 74.689 8.95672 74.5741 8.74287C74.4591 8.52902 74.3372 8.30157 74.3032 8.23742C74.2691 8.17326 74.1664 7.98079 74.0748 7.80972C73.9832 7.63864 73.8803 7.44618 73.8461 7.38203C73.812 7.31787 73.6654 7.04376 73.5204 6.77288C73.3754 6.50201 73.0768 5.94212 72.8568 5.52869C72.6368 5.11525 72.3876 4.64867 72.3032 4.49185C72.2188 4.33503 72.0472 4.01426 71.922 3.77903C71.7967 3.54379 71.6527 3.27551 71.6018 3.18285C71.5509 3.09018 71.3823 2.77524 71.2269 2.48298C70.3802 0.889755 70.4499 1.00492 70.2852 0.924878C70.1799 0.873684 69.979 0.86303 69.8831 0.903519ZM45.0274 7.76047C44.953 7.76503 44.5544 7.78134 44.1416 7.79673C42.074 7.87382 40.4785 8.00918 38.3224 8.29045C38.0573 8.32502 37.1702 8.46635 36.9444 8.50998C35.1797 8.85096 34.222 9.13109 33.4785 9.52379C33.1037 9.72177 32.9199 9.8783 32.7345 10.1574C32.6587 10.2715 32.2715 10.835 31.8094 11.5034C31.388 12.1131 30.8794 12.8515 30.6134 13.2402C30.4719 13.4469 30.3265 13.6568 30.2902 13.7067C30.2148 13.8106 29.664 14.623 29.3525 15.0896C29.2369 15.2628 29.1019 15.4647 29.0525 15.5383C27.8883 17.2715 26.8366 18.9967 26.2106 20.1999C25.9696 20.6629 25.9464 20.7261 25.8475 21.1849C25.656 22.074 25.6771 22.7658 25.9027 22.9931C26.0847 23.1765 26.4795 23.274 27.0406 23.2741C27.4118 23.2741 28.0057 23.2226 28.3837 23.1577C30.183 22.8484 32.0588 21.8028 33.696 20.1967C34.7072 19.2046 35.539 18.1829 36.2566 17.0515C36.5694 16.5582 36.5377 16.5773 37.6756 16.1966C38.1802 16.0279 39.0644 15.732 39.6406 15.5393C40.2168 15.3465 40.7384 15.1808 40.7999 15.1711C40.8733 15.1595 40.9645 15.1678 41.0662 15.1952C41.2082 15.2336 42.2629 15.7901 43.588 16.5259C43.8316 16.6612 44.1361 16.8302 44.2647 16.9015C45.8648 17.7895 47.6778 18.8424 49.4366 19.9052C49.5271 19.9598 49.6378 20.0265 49.6826 20.0532C50.06 20.278 51.4847 21.1749 52.077 21.5607C52.28 21.6929 52.4959 21.8326 52.5568 21.8712C52.84 22.0507 53.8623 22.753 54.4515 23.1725C55.0796 23.6199 56.0669 24.3319 56.5658 24.6972C56.6144 24.7329 56.7649 24.8428 56.9 24.9416C57.3608 25.2785 58.3009 25.9765 59.065 26.5489C59.4846 26.8631 59.8675 27.1495 59.9161 27.1853C60.958 27.953 63.5047 29.9513 65.0543 31.217C65.395 31.4953 66.2429 32.2121 66.5697 32.4981C66.7593 32.664 67.108 32.9678 67.3448 33.1734C67.5817 33.3789 67.8727 33.6322 67.9916 33.7361C68.1104 33.84 68.2226 33.925 68.2409 33.925C68.2986 33.925 68.9575 33.5706 69.2831 33.3644C70.3591 32.6832 71.2121 31.9258 72.4882 30.519C73.097 29.8478 73.4895 29.4499 73.8838 29.1044C73.9684 29.0302 74.0376 28.9566 74.0376 28.9407C74.0376 28.9153 73.7708 28.4053 73.2618 27.4577C73.1776 27.301 72.9314 26.8402 72.7147 26.4339C72.498 26.0276 72.2956 25.6485 72.265 25.5914C72.2344 25.5344 72.1131 25.3069 71.9953 25.086C71.7949 24.7098 71.3842 23.9417 71.2744 23.7381C71.2476 23.6882 71.148 23.5016 71.0532 23.3234C70.9584 23.1451 70.79 22.8302 70.6791 22.6235C70.3987 22.1011 70.3664 22.0408 70.1248 21.5867C70.0073 21.3657 69.817 21.0099 69.7021 20.7961C69.37 20.178 69.3617 20.1626 69.2023 19.8629C69.0388 19.5555 69.0406 19.5588 68.6484 18.8261C68.5035 18.5552 68.2048 17.9953 67.9847 17.5819C67.5609 16.7861 67.3858 16.4582 66.7728 15.3138C66.5628 14.9217 66.3134 14.4552 66.2186 14.277C66.1239 14.0987 65.9495 13.7721 65.831 13.5512C65.7126 13.3302 65.5193 12.9686 65.4014 12.7477C65.2835 12.5267 65.162 12.2992 65.1315 12.2422C65.101 12.1851 64.8984 11.8061 64.6813 11.3997C63.9916 10.1085 63.453 9.1061 63.4431 9.09555C63.4379 9.08993 63.3863 9.1041 63.3285 9.12705C62.644 9.39869 61.4856 9.70013 60.6619 9.82089C60.1108 9.90176 59.2565 9.90248 58.6995 9.82249C57.9634 9.71685 57.3043 9.5817 56.0631 9.28185C55.6165 9.17396 55.1902 9.07111 55.1158 9.05325C55.0413 9.03542 54.7369 8.9604 54.4391 8.88655C53.1857 8.57569 51.6816 8.25408 50.859 8.12103C50.7304 8.10024 50.5201 8.06629 50.3915 8.04555C49.8702 7.96151 49.1381 7.87397 48.2877 7.79398C47.9975 7.76669 45.3681 7.73966 45.0274 7.76047ZM20.3518 9.47491C20.2985 9.57128 20.1745 9.8017 20.0762 9.98708C19.9779 10.1724 19.6851 10.7206 19.4254 11.2054C19.1658 11.6901 18.9254 12.1392 18.8912 12.2033C18.8571 12.2674 18.8068 12.3607 18.7794 12.4107C18.7346 12.4925 18.2558 13.3885 17.7268 14.3806C17.6166 14.5874 17.4951 14.8148 17.457 14.8861C17.1833 15.3973 16.6764 16.346 15.7951 17.9967C15.5211 18.5099 15.2061 19.0989 15.095 19.3056C14.853 19.7562 14.4323 20.5445 14.0369 21.2886C13.8777 21.588 13.7057 21.9087 13.6546 22.0014C13.6036 22.0941 13.3847 22.5024 13.1683 22.9087C12.9519 23.315 12.7499 23.6941 12.7194 23.751C12.689 23.8081 12.5675 24.0355 12.4497 24.2565C12.1816 24.7588 11.6516 25.7491 11.3676 26.2784C11.249 26.4993 11.0215 26.925 10.8618 27.2244C10.7022 27.5238 10.4311 28.0313 10.2593 28.352C10.0876 28.6728 9.9103 29.0052 9.86538 29.0908C9.82045 29.1763 9.76354 29.2813 9.73881 29.324C9.71399 29.3668 9.69379 29.4107 9.6937 29.4215C9.6937 29.4323 9.78496 29.5478 9.89662 29.6782C10.5878 30.4852 10.6301 30.5391 12.5685 33.089C12.8855 33.5061 13.1536 33.8472 13.1641 33.8472C13.1747 33.8472 13.2386 33.7744 13.3061 33.6852C14.0019 32.7664 15.1251 32.2149 16.3019 32.2144C17.9801 32.2136 19.5789 33.213 20.4898 34.8323C20.6408 35.1007 20.8558 35.6051 20.923 35.8485C20.9454 35.9297 20.9732 36.0022 20.9848 36.0098C20.9964 36.0174 21.1369 35.8342 21.2967 35.6028C21.9157 34.7075 22.2208 34.2938 22.3944 34.1149C22.9855 33.5055 23.7663 33.1104 24.6126 32.9927C25.0184 32.9363 25.7019 32.9726 26.0972 33.0716C27.8738 33.5167 29.2992 34.9632 29.799 36.8281C29.9206 37.2823 29.9688 37.6642 29.9687 38.176C29.9686 38.451 29.9546 38.7164 29.9332 38.85C29.9137 38.9712 29.8944 39.0988 29.8902 39.1336L29.8826 39.1971L30.2231 39.2054C31.9363 39.2476 33.6078 40.4322 34.4215 42.1808C34.6326 42.6346 34.7403 42.9774 34.8573 43.5675C34.9167 43.8684 34.9301 44.737 34.8803 45.0684C34.8585 45.2135 34.8407 45.3405 34.8407 45.3507C34.8407 45.3608 35.0317 45.3708 35.2651 45.3728C35.6185 45.3758 35.7431 45.388 36.0095 45.4454C37.5008 45.7666 38.7738 46.7816 39.4753 48.2091C39.8658 49.0037 40.0378 49.7214 40.0402 50.5662C40.0422 51.2827 39.8973 51.9533 39.6154 52.5311C39.4616 52.8465 39.3805 52.9751 38.9508 53.5848C38.7603 53.8551 38.6082 54.0875 38.6126 54.1014C38.6197 54.124 39.4285 54.4168 39.9095 54.5709C40.1312 54.6419 40.8799 54.8789 41.0571 54.9342C41.6357 55.1146 42.6969 55.3955 43.3062 55.5294C44.2976 55.7474 44.4479 55.7745 45.1751 55.8662C45.2224 55.8722 45.4911 55.8911 45.7721 55.9082C46.9043 55.9772 47.9683 55.8099 48.632 55.4585C49.4356 55.033 50.2384 54.274 50.991 53.2281C51.1395 53.0217 51.1687 52.9509 51.105 52.9509C51.0929 52.9509 50.7989 52.8051 50.4515 52.6269C50.1042 52.4487 49.8172 52.3029 49.8137 52.3029C49.8102 52.3029 49.554 52.1732 49.2444 52.0148C48.4558 51.6113 48.0079 51.3835 47.7217 51.2401C47.5865 51.1723 47.2764 51.015 47.0328 50.8905C46.6311 50.6852 45.8553 50.2902 44.8306 49.7692C44.6208 49.6625 44.3274 49.5138 44.1785 49.4386C42.99 48.8382 42.8399 48.7556 42.7337 48.6437C42.3848 48.2761 42.4012 47.6874 42.7702 47.3379C42.9287 47.1877 43.1086 47.1187 43.3419 47.1187C43.566 47.1187 43.5759 47.1228 44.4215 47.5569C44.7852 47.7436 45.0855 47.8964 45.0889 47.8964C45.0922 47.8964 45.3538 48.029 45.6702 48.191C46.3921 48.5607 46.8582 48.7979 47.2051 48.9721C47.3539 49.0469 47.6861 49.2158 47.9432 49.3476C48.4399 49.6021 48.8739 49.823 49.3949 50.0864C49.7731 50.2775 50.2022 50.496 50.9545 50.8807C51.2574 51.0356 51.5087 51.1624 51.513 51.1624C51.5172 51.1624 51.7115 51.2615 51.9445 51.3827C52.2725 51.5532 52.3917 51.6031 52.4715 51.6031C52.5282 51.6031 52.6288 51.6138 52.6949 51.6271C52.7611 51.6402 53.0383 51.6656 53.3109 51.6835C53.7072 51.7095 53.8896 51.7095 54.2189 51.6838C55.2711 51.6016 55.8272 51.362 56.2739 50.7986C56.5036 50.5089 56.7085 50.1031 56.8527 49.652C56.99 49.2229 57.1302 48.4078 57.1329 48.0238C57.1335 47.9319 57.1299 47.9287 56.8321 47.7489C56.6662 47.649 56.3314 47.4446 56.0878 47.2948C55.8442 47.1451 55.4621 46.9116 55.2388 46.7761C55.0155 46.6406 54.7221 46.4619 54.5868 46.379C54.4515 46.296 54.1082 46.0865 53.824 45.9134C53.5398 45.7403 53.1578 45.5072 52.9751 45.3954C52.4154 45.053 52.0565 44.834 51.9663 44.7795C51.7577 44.6539 51.0551 44.226 50.6376 43.9705C50.1871 43.6949 49.6922 43.3929 49.3827 43.2049C49.2947 43.1515 49.1175 43.0434 48.989 42.9647C48.5958 42.7243 47.5518 42.0874 47.0451 41.779C46.7812 41.6183 46.5287 41.4583 46.4841 41.4233C46.2916 41.2724 46.1346 40.8712 46.173 40.6278C46.2467 40.1615 46.5903 39.8307 47.0073 39.8245C47.2295 39.8213 47.3317 39.863 47.7833 40.1415C47.9795 40.2624 48.1899 40.3908 48.2507 40.4267C48.3117 40.4626 48.7325 40.7185 49.1858 40.9956C50.079 41.5414 50.8026 41.9829 51.1912 42.2194C51.3265 42.3018 51.6033 42.4709 51.8063 42.5953C52.2596 42.8731 52.3467 42.9263 53.9839 43.9248C54.708 44.3664 55.3391 44.7506 55.3865 44.7786C55.4338 44.8067 55.6774 44.9552 55.9278 45.1087C56.1782 45.2622 56.4937 45.4553 56.629 45.5378C57.2763 45.9329 57.9723 46.3595 58.1054 46.4429L58.253 46.5355L58.942 46.5331C59.6557 46.5306 59.9557 46.5019 60.4307 46.3913C61.0926 46.2369 61.4189 46.067 61.7808 45.6884C62.3069 45.138 62.5958 44.5111 62.7092 43.6737C62.7534 43.3479 62.7548 42.6853 62.712 42.3882L62.682 42.1808L61.2057 41.2469C60.3937 40.7333 57.5834 38.9556 54.9607 37.2966C52.3379 35.6376 50.1484 34.247 50.0952 34.2064C49.963 34.1055 49.8353 33.8935 49.7874 33.6953C49.6932 33.3059 49.8989 32.8613 50.2562 32.6823C50.4299 32.5952 50.7268 32.5791 50.8959 32.6476C50.9891 32.6853 58.5737 37.4658 63.7712 40.7627C64.2576 41.0711 64.2933 41.0851 64.8351 41.1764C65.1926 41.2366 65.8975 41.2353 66.2094 41.1739C66.8522 41.0471 67.3205 40.797 67.7415 40.3555C68.1356 39.9422 68.4288 39.3713 68.581 38.7204C68.6613 38.3772 68.655 37.8131 68.567 37.4553C68.4456 36.9624 68.1985 36.4944 67.7981 35.9986C67.5319 35.6689 67.5325 35.6696 66.3606 34.6535C65.3236 33.7545 65.2603 33.7011 63.9985 32.6649C63.5997 32.3375 62.2445 31.2385 61.6732 30.7793C61.2213 30.4161 59.3523 28.9765 58.6872 28.4793C56.8827 27.1303 56.5225 26.8627 55.8909 26.4022C55.6744 26.2443 55.2813 25.9573 55.0174 25.7643C53.8085 24.8806 52.6818 24.0893 51.794 23.5003C51.1341 23.0626 50.2353 22.488 49.5303 22.0535C49.3611 21.9492 49.1729 21.8318 49.112 21.7926C48.6412 21.4893 46.5161 20.2321 45.2489 19.5073C44.8632 19.2867 44.4535 19.0533 44.3385 18.9888C43.6705 18.6138 42.9301 18.2008 42.6407 18.0417C41.8638 17.6145 41.3076 17.3108 41.0659 17.1817L40.8076 17.0438L40.0571 17.2962C39.6443 17.435 38.9377 17.6719 38.4867 17.8228L37.6668 18.0971L37.5763 18.2366C36.6153 19.7177 35.3092 21.2149 34.0533 22.275C32.2267 23.8169 30.3213 24.724 28.3447 24.9925C27.566 25.0985 26.7148 25.1112 26.204 25.0245C25.5829 24.9193 25.065 24.6619 24.6996 24.277C24.2788 23.8337 24.0709 23.315 24.0119 22.5618C23.9654 21.9675 24.052 21.2426 24.2753 20.358C24.3394 20.1036 24.3971 19.9484 24.516 19.7099C24.9103 18.919 25.2615 18.2924 25.9445 17.1615C26.5171 16.2133 27.6025 14.5544 28.7649 12.8513C28.9839 12.5306 29.1675 12.2558 29.1729 12.2407C29.1792 12.2234 28.9846 12.1818 28.647 12.1282C28.3522 12.0814 27.8951 12.0089 27.6312 11.9671C25.0218 11.5536 23.7996 11.2597 22.9304 10.8365C22.6643 10.7069 21.9724 10.2806 20.963 9.62426C20.7397 9.47906 20.5327 9.34665 20.5029 9.32998C20.4524 9.30178 20.4421 9.31165 20.3518 9.47491ZM16.128 34.0197C15.7531 34.0601 15.3776 34.1916 15.1092 34.3764C14.8056 34.5856 14.7459 34.6602 13.7785 36.0376C13.6883 36.1659 13.4503 36.5036 13.2495 36.7881C13.0488 37.0726 12.8307 37.3889 12.7649 37.491C12.3385 38.1532 12.2566 39.0258 12.538 39.9127C12.8527 40.9048 13.6568 41.7751 14.5704 42.1124C15.3427 42.3975 16.0803 42.3432 16.6878 41.9566C16.9331 41.8005 17.0131 41.6993 18.0689 40.2108C18.3621 39.7974 18.6489 39.3954 18.706 39.3178C18.9616 38.9702 19.1553 38.6675 19.2292 38.5C19.504 37.8774 19.5254 37.1499 19.2907 36.4122C19.1116 35.8487 18.8754 35.4534 18.4552 35.0137C18.0658 34.6062 17.6962 34.3545 17.2418 34.1872C16.9179 34.0681 16.4009 33.9903 16.128 34.0197ZM24.7544 34.7955C24.471 34.8436 24.1534 34.9696 23.9262 35.124C23.615 35.3357 23.5635 35.3947 23.0612 36.1153C22.6777 36.6654 22.2184 37.3259 21.8442 37.865C21.6116 38.2 21.3146 38.6258 21.1841 38.8111C21.0537 38.9964 20.7774 39.393 20.57 39.6924C20.3626 39.9917 20.1233 40.3358 20.038 40.4571C19.8463 40.7295 19.8639 40.7043 19.1537 41.7272C18.8321 42.1905 18.4709 42.7096 18.3513 42.8807C18.2317 43.0517 18.0519 43.3091 17.9518 43.4526C17.8517 43.5961 17.7351 43.7783 17.6927 43.8575C17.5161 44.1873 17.3955 44.6899 17.3955 45.0969C17.3955 45.5436 17.5311 46.1052 17.7462 46.5495C17.922 46.9128 18.0912 47.1585 18.3759 47.4642C18.8278 47.9496 19.3487 48.2654 19.951 48.419C20.2303 48.4903 20.8162 48.4969 21.0701 48.4317C21.6316 48.2875 21.9988 48.0147 22.4009 47.4427C22.6554 47.081 23.4951 45.8772 23.6573 45.6416C23.725 45.5434 23.9133 45.2731 24.0756 45.041C24.2381 44.8088 24.6034 44.2842 24.8876 43.875C25.1719 43.4659 25.8861 42.441 26.4747 41.5976C27.0634 40.7541 27.6316 39.94 27.7374 39.7884C28.1163 39.2449 28.2413 38.8771 28.2636 38.2385C28.2755 37.8972 28.2703 37.8132 28.2228 37.579C28.1645 37.292 28.0469 36.9303 27.9365 36.6986C27.7867 36.384 27.4725 35.9359 27.2662 35.7428C27.2302 35.709 27.1548 35.6367 27.0988 35.5821C26.9586 35.4454 26.6295 35.2126 26.4174 35.1001C25.8935 34.822 25.2706 34.7079 24.7544 34.7955ZM29.5996 41.0519C29.2577 41.1339 28.9887 41.2616 28.7403 41.46C28.6218 41.5547 28.1853 42.1558 27.0668 43.7649C26.9391 43.9486 26.7441 44.2273 26.6336 44.3841C26.5231 44.5409 26.2465 44.9375 26.0191 45.2654C25.7918 45.5933 25.5156 45.9899 25.4055 46.1467C25.0849 46.6031 24.3622 47.6425 24.1665 47.9287C23.9519 48.2425 23.7629 48.6353 23.6892 48.9202C23.6442 49.0948 23.6355 49.1992 23.6344 49.5812C23.6331 49.9977 23.6386 50.0577 23.7024 50.3157C23.9647 51.3777 24.6498 52.237 25.6012 52.6977C26.3584 53.0643 27.2634 53.0497 27.8872 52.6609C28.1186 52.5167 28.4104 52.216 28.6231 51.9027C28.7205 51.7593 28.8535 51.5661 28.9188 51.4734C29.1074 51.2056 30.0788 49.799 30.2524 49.5423C30.3391 49.4141 30.6043 49.0291 30.8417 48.687C31.0791 48.3448 31.3812 47.9084 31.5129 47.7172C31.6448 47.526 31.8663 47.2052 32.0051 47.0043C32.9637 45.6183 33.0154 45.5312 33.1299 45.1119C33.2491 44.6748 33.2387 44.0441 33.1043 43.5546C32.7783 42.3676 31.8584 41.4048 30.7605 41.1016C30.3771 40.9957 29.9166 40.976 29.5996 41.0519ZM34.8389 47.196C34.5179 47.2396 34.1103 47.4176 33.8564 47.6253C33.6647 47.7822 33.5489 47.9172 33.3019 48.2722C33.1829 48.4433 33.012 48.6883 32.9222 48.8165C32.7249 49.0982 31.9279 50.2521 31.6536 50.6532C31.5449 50.8121 31.3798 51.0529 31.2865 51.1883C30.4185 52.4494 30.407 52.469 30.3081 52.8585C30.232 53.1579 30.2323 53.7924 30.3086 54.1347C30.4629 54.8265 30.737 55.3424 31.2229 55.8557C31.6412 56.2976 32.082 56.5867 32.5797 56.7456C32.8975 56.8471 33.1141 56.8731 33.5119 56.8577C33.8272 56.8456 33.8954 56.8345 34.0982 56.7623C34.6705 56.5583 34.8616 56.3818 35.4917 55.4749C35.6826 55.2 36.1588 54.5211 36.4892 54.0525C36.6378 53.8419 36.8969 53.4732 37.3907 52.7695C37.4857 52.634 37.6496 52.4007 37.7547 52.2511C37.8599 52.1013 37.9885 51.9031 38.0405 51.8104C38.3641 51.2335 38.4266 50.3578 38.1972 49.615C37.7573 48.1907 36.4629 47.1501 35.1612 47.174C35.0593 47.1758 34.9143 47.1858 34.8389 47.196Z" fill="white"/>
</svg>
