<svg width="69" height="76" viewBox="0 0 69 76" fill="none" xmlns="http://www.w3.org/2000/svg">
<path d="M5.8012 17.8512C5.64542 17.8828 4.59734 18.4496 4.12751 19.2417C3.81845 19.7642 3.83091 20.1653 4.18858 20.3842C4.62975 20.6537 5.041 20.2324 5.80494 19.4922C6.89539 18.4319 7.79268 17.8879 9.00526 18.628C10.4845 19.5302 10.2802 21.0573 9.52369 22.334C8.94918 23.3032 8.01077 24.1914 7.04245 24.6659L6.12647 23.1931C6.32711 23.1501 7.57957 22.4934 8.1815 21.4762C8.50677 20.9258 8.48683 20.5588 8.17527 20.3678C7.68799 20.0704 7.16582 20.679 6.34954 21.4243C5.25909 22.4213 4.47147 22.7161 3.48945 22.1164C2.11236 21.275 2.03011 19.7022 2.81523 18.3775C3.37355 17.4362 4.26335 16.7985 4.94504 16.4277L5.80245 17.8524L5.8012 17.8512Z" fill="#4228C3"/>
<path d="M11.2123 11.5499C11.0528 11.5436 9.90378 11.8447 9.26322 12.5039C8.84199 12.9379 8.76099 13.3314 9.05884 13.6287C9.42523 13.9957 9.92372 13.6832 10.836 13.1454C12.142 12.3736 13.1402 12.0586 14.1472 13.067C15.376 14.2968 14.8264 15.7316 13.7958 16.7944C13.0131 17.6004 11.8965 18.2394 10.8447 18.4709L10.2951 16.821C10.4995 16.8273 11.8691 16.4857 12.6891 15.6405C13.1328 15.1838 13.1988 14.8206 12.9384 14.5613C12.5333 14.1564 11.8853 14.6232 10.9195 15.1534C9.62836 15.8632 8.79588 15.9619 7.97836 15.1445C6.83307 13.9995 7.11721 12.4495 8.18523 11.3487C8.94543 10.5655 9.95737 10.1581 10.7064 9.95947L11.2111 11.5486L11.2123 11.5499Z" fill="#4228C3"/>
<path d="M16.9 13.8063L12.8535 7.26365L14.3415 6.3147L17.5668 11.5301L20.6886 9.53986L21.5098 10.8671L16.8988 13.8063L16.9 13.8063Z" fill="#4228C3"/>
<path d="M28.5473 2.95451C28.4164 2.86214 27.2861 2.49395 26.3988 2.70525C25.8143 2.84443 25.5401 3.13291 25.6348 3.54665C25.752 4.05529 26.3364 4.06162 27.392 4.10211C28.9012 4.15651 29.9119 4.43108 30.2334 5.8292C30.626 7.53478 29.4072 8.45083 27.9765 8.78992C26.891 9.04804 25.6099 8.98351 24.5992 8.60899L25.0017 6.9148C25.1712 7.0312 26.5084 7.48417 27.6462 7.21466C28.2619 7.06789 28.5074 6.79713 28.4251 6.43779C28.2955 5.87601 27.5017 5.91903 26.4062 5.84438C24.9419 5.74569 24.1855 5.3775 23.9237 4.24382C23.5574 2.65464 24.6117 1.49819 26.0934 1.14644C27.1477 0.895918 28.2183 1.09963 28.956 1.33876L28.5473 2.95577L28.5473 2.95451Z" fill="#4228C3"/>
<path d="M37.5341 6.43677L37.5092 8.00317L32.1616 7.91586L32.285 0.191406L37.5354 0.277444L37.5104 1.84385L34.0173 1.78691L33.9936 3.28878L36.9945 3.33813L36.9721 4.78559L33.9711 4.73625L33.945 6.37856L37.5341 6.43803L37.5341 6.43677Z" fill="#4228C3"/>
<path d="M43.9701 1.42365C45.2799 1.75895 46.1323 2.68386 46.3591 3.77452L44.8188 4.36793C44.7141 3.49996 44.086 3.09254 43.5451 2.95336C42.34 2.64464 41.4801 3.65938 41.2109 4.74625C40.9156 5.93813 41.3542 7.1958 42.4459 7.47416C43.0067 7.61714 43.7532 7.50579 44.2094 6.82508L45.4057 8.01696C44.6941 9.01273 43.1862 9.29994 42.0222 9.0026C39.9747 8.47878 39.0151 6.15702 39.4911 4.23761C39.941 2.42321 41.7244 0.847956 43.9701 1.42239L43.9701 1.42365Z" fill="#4228C3"/>
<path d="M52.2157 9.342L54.1361 5.9068L55.6653 6.78742L53.7448 10.2226C52.708 12.0775 50.9819 13.048 48.9406 11.8713C46.8245 10.6515 46.8881 8.59928 47.8713 6.83803L49.7918 3.40283L51.3209 4.28346L49.4005 7.71866C48.8297 8.74099 48.6789 9.89239 49.7133 10.4883C50.7663 11.0957 51.6599 10.334 52.2157 9.34073L52.2157 9.342Z" fill="#4228C3"/>
<path d="M53.2148 14.597L58.5998 9.13867L61.0225 11.6021C62.0369 12.6333 61.8537 14.3263 60.9589 15.2335C60.2997 15.9028 59.3513 16.171 58.5188 15.9243L57.7511 19.2089L56.3504 17.7842L57.0046 14.9222L56.1946 14.0985L54.4586 15.8585L53.2173 14.5958L53.2148 14.597ZM57.2776 13.0003L58.4129 14.1555C58.7082 14.4553 59.2616 14.387 59.694 13.9492C60.1339 13.5038 60.1264 12.9104 59.846 12.6257L58.7481 11.5098L57.2763 13.0015L57.2776 13.0003Z" fill="#4228C3"/>
<path d="M62.4909 24.1327L61.1674 24.9374L58.4194 20.2799L64.9472 16.3108L67.6453 20.8847L66.3218 21.6894L64.526 18.6465L63.2573 19.4183L64.7989 22.0323L63.5763 22.7763L62.0347 20.1623L60.6464 21.0062L62.4909 24.1327Z" fill="#4228C3"/>
<path d="M14.3437 59.6364L15.6174 60.6688L14.6939 63.0817L16.8237 61.6469L18.0887 62.6717L14.8858 64.6709L14.2116 66.7839L19.2015 63.56L20.692 64.7683L13.5748 68.8855L12.4183 67.9492L13.3393 64.8252L10.534 66.422L9.38623 65.492L11.7628 57.5322L13.2458 58.7342L11.2631 64.395L13.1262 63.2462L14.3437 59.6389L14.3437 59.6364Z" fill="#4228C3"/>
<path d="M24.5619 72.4825L24.0111 73.9464L19.0137 72.0106L21.728 64.7922L26.6344 66.6939L26.0835 68.1578L22.8184 66.8926L22.2913 68.2958L25.0953 69.3826L24.5868 70.7352L21.7828 69.6483L21.2058 71.1831L24.5606 72.4825L24.5619 72.4825Z" fill="#4228C3"/>
<path d="M30.9521 75.2034L27.2695 74.7656L28.1544 67.0918L32.3591 67.5916C33.4234 67.7181 33.9693 68.791 33.8571 69.7628C33.7736 70.4865 33.3175 71.1672 32.5673 71.4064C33.3997 71.7682 33.8658 72.5033 33.7462 73.5409C33.5941 74.8593 32.3591 75.3704 30.9546 75.2034L30.9521 75.2034ZM31.3933 72.0352L29.3819 71.7961L29.1887 73.4713L31.1266 73.7016C31.574 73.7547 31.9529 73.4599 32.0089 72.974C32.0638 72.4983 31.8095 72.0845 31.3946 72.0352L31.3933 72.0352ZM29.7246 68.8138L29.5414 70.403L31.255 70.6067C31.6376 70.6523 32.0189 70.4346 32.0812 69.8944C32.1398 69.387 31.8744 69.0694 31.5017 69.0251L29.7246 68.8138Z" fill="#4228C3"/>
<path d="M40.6532 69.3689C40.5311 69.2639 39.4431 68.7831 38.5396 68.9033C37.9439 68.9817 37.6423 69.2411 37.6971 69.6624C37.7632 70.1799 38.3452 70.2457 39.3908 70.3925C40.8875 70.6 41.8658 70.9758 42.049 72.3992C42.272 74.1364 40.9685 74.9234 39.5129 75.117C38.4075 75.2638 37.1401 75.0689 36.1705 74.5945L36.7375 72.9496C36.8946 73.0825 38.1807 73.6695 39.3397 73.5152C39.9665 73.4317 40.2382 73.1875 40.1908 72.8206C40.1173 72.2487 39.3235 72.2107 38.2405 72.026C36.7924 71.7792 36.0758 71.3364 35.9275 70.1812C35.7194 68.5629 36.8821 67.5191 38.3913 67.3192C39.4643 67.1775 40.5099 67.4887 41.2202 67.8L40.6544 69.3676L40.6532 69.3689Z" fill="#4228C3"/>
<path d="M45.2045 73.7911L42.8379 66.4488L44.5078 65.8933L46.8744 73.2357L45.2045 73.7911Z" fill="#4228C3"/>
<path d="M52.2233 63.7647L50.1957 64.8996L53.1256 70.2922L51.5865 71.1538L48.6566 65.7612L46.6202 66.9013L45.875 65.5297L51.478 62.3918L52.2233 63.7634L52.2233 63.7647Z" fill="#4228C3"/>
<path d="M60.5104 62.4548L61.551 63.6125L57.5992 67.2729L52.4697 61.5653L56.3492 57.9719L57.3898 59.1296L54.8089 61.521L55.8059 62.6306L58.0229 60.5771L58.9838 61.6463L56.7667 63.6998L57.8572 64.9132L60.5104 62.456L60.5104 62.4548Z" fill="#4228C3"/>
<path d="M63.6969 55.8777L61.7827 54.6897C64.8497 49.5957 66.4698 43.7286 66.4698 37.7262C66.4698 34.5959 66.0336 31.5011 65.1737 28.5277L67.3259 27.8862C68.2469 31.0684 68.713 34.3783 68.713 37.7262C68.713 44.1487 66.9782 50.4257 63.6969 55.8777Z" fill="#4228C3"/>
<path d="M5.0757 55.8777C1.79188 50.4257 0.0571289 44.1487 0.0571289 37.7262C0.0571289 34.3783 0.524465 31.0684 1.44543 27.8862L3.59767 28.5277C2.73777 31.5011 2.30034 34.5959 2.30034 37.7262C2.30034 43.7299 3.92169 49.5957 6.98866 54.6897L5.07445 55.8777L5.0757 55.8777Z" fill="#4228C3"/>
<path d="M24.1839 49.186C24.2312 49.186 24.2798 49.181 24.3297 49.1709C26.4807 48.7407 28.7451 48.4535 31.0755 48.3067L31.0755 40.338C31.0755 39.8471 31.1677 39.379 31.3335 38.9475L23.147 38.9475C22.9451 38.9475 22.747 39.0335 22.6049 39.1816C22.4641 39.3296 22.388 39.5333 22.3955 39.7383C22.5114 42.9242 22.8666 45.9014 23.4523 48.5863C23.5283 48.933 23.8362 49.1848 24.1851 49.1848L24.1839 49.186Z" fill="#4228C3"/>
<path d="M51.4229 36.4974L51.4229 31.3414C51.4229 27.5064 48.3497 24.385 44.5723 24.385L42.6469 24.385C38.8696 24.385 35.7964 27.5064 35.7964 31.3414L35.7964 36.4974L39.221 36.4974L39.221 31.3414C39.221 29.4246 40.7576 27.862 42.6469 27.862L44.5723 27.862C46.4616 27.862 47.997 29.4233 47.997 31.3414L47.997 36.4974L51.4229 36.4974Z" fill="#34F3D0"/>
<path d="M52.3737 38.957L34.8455 38.957C34.094 38.957 33.4858 39.5757 33.4858 40.3387L33.4858 54.0681C33.4858 54.8311 34.094 55.4485 34.8455 55.4485L52.3737 55.4485C53.1252 55.4485 53.7333 54.8311 53.7333 54.0681L53.7333 40.3387C53.7333 39.5757 53.1252 38.957 52.3737 38.957ZM45.0234 47.1256L45.0234 51.2074C45.0234 52.0007 44.3904 52.6434 43.609 52.6434C42.8276 52.6434 42.1945 52.0007 42.1945 51.2074L42.1945 47.1256C41.4854 46.6562 41.0156 45.8439 41.0156 44.9177C41.0156 43.4639 42.177 42.2847 43.609 42.2847C45.0409 42.2847 46.2036 43.4639 46.2036 44.9177C46.2036 45.8439 45.7338 46.6562 45.0234 47.1256Z" fill="#34F3D0"/>
<path d="M53.8331 36.5077L59.0461 36.5077C59.2555 36.5077 59.4574 36.4179 59.5969 36.261C59.739 36.1053 59.8113 35.8953 59.7938 35.684C59.4474 31.2493 57.9881 26.9726 55.5716 23.3186C55.3623 23.001 54.9211 22.8909 54.5921 23.0706C53.5141 23.6576 52.3451 24.1941 51.0977 24.6762C52.7863 26.3805 53.8331 28.739 53.8331 31.3416L53.8331 36.5064L53.8331 36.5077Z" fill="#4228C3"/>
<path d="M42.6465 30.3096C42.087 30.3096 41.6309 30.7727 41.6309 31.3408L41.6309 36.5056L45.5851 36.5056L45.5851 31.3408C45.5851 30.7714 45.1303 30.3096 44.5707 30.3096L42.6453 30.3096L42.6465 30.3096Z" fill="#4228C3"/>
<path d="M35.8936 24.9159C37.5847 23.0851 39.985 21.9375 42.6469 21.9375L43.8981 21.9375C42.0936 17.0105 39.4827 13.5361 36.6251 12.3151C36.3958 12.2164 36.1254 12.2417 35.9173 12.3822C35.7067 12.5239 35.582 12.7617 35.582 13.0186L35.582 24.2984C35.582 24.5047 35.6655 24.7046 35.8113 24.8476C35.8375 24.8729 35.8649 24.8944 35.8923 24.9159L35.8936 24.9159Z" fill="#4228C3"/>
<path d="M42.9306 60.6163C42.7387 60.8908 42.7474 61.2679 42.953 61.5311C43.0963 61.7158 43.3119 61.8221 43.5437 61.8221C43.6397 61.8221 43.7344 61.8031 43.8229 61.7677C46.1857 60.8023 48.3641 59.5054 50.3319 57.8972L44.5619 57.8972C44.0572 58.874 43.5126 59.7837 42.9293 60.6175L42.9306 60.6163Z" fill="#4228C3"/>
<path d="M59.0462 38.9475L55.8857 38.9475C56.0515 39.379 56.1437 39.8471 56.1437 40.338L56.1437 51.189C58.2199 47.7361 59.4786 43.8175 59.7952 39.7712C59.8114 39.5599 59.7403 39.3499 59.5983 39.193C59.4574 39.0373 59.2555 38.9475 59.0462 38.9475Z" fill="#4228C3"/>
<path d="M35.582 62.4269C35.582 62.6837 35.7079 62.9216 35.9185 63.0633C36.0419 63.1455 36.1852 63.1898 36.3335 63.1898C36.4345 63.1898 36.5329 63.1696 36.6264 63.1304C38.5418 62.3067 40.3476 60.4809 41.8693 57.8972L35.582 57.8972L35.582 62.4269Z" fill="#4228C3"/>
<path d="M31.0744 54.0647L31.0744 50.751C29.0106 50.8813 26.9992 51.1268 25.0812 51.4899C24.8681 51.5304 24.6824 51.6632 24.5728 51.8518C24.4619 52.0415 24.4382 52.2706 24.5067 52.4806C26.2876 57.9314 29.0704 61.8107 32.1399 63.1266C32.2321 63.1658 32.3318 63.186 32.4315 63.186C32.5798 63.186 32.7231 63.1417 32.8465 63.0595C33.0571 62.9178 33.183 62.6799 33.183 62.4231L33.183 57.4999C31.9355 56.8749 31.0744 55.5704 31.0744 54.0647Z" fill="#4228C3"/>
<path d="M46.6876 22.7936C46.7872 23.1099 47.0751 23.3237 47.4029 23.3237C47.4764 23.3237 47.5487 23.3123 47.6185 23.2921C49.5352 22.7101 51.2687 22.0331 52.7729 21.2816C52.986 21.1753 53.138 20.9703 53.1804 20.735C53.2228 20.4984 53.153 20.2516 52.9922 20.0783C50.415 17.2669 47.3306 15.1159 43.8262 13.6849C43.5209 13.5584 43.1582 13.6571 42.9563 13.919C42.7482 14.1872 42.7395 14.5541 42.9339 14.8325C44.4344 16.9809 45.698 19.6595 46.69 22.7936L46.6876 22.7936Z" fill="#4228C3"/>
<path d="M32.4572 27.512C29.5859 27.4121 26.8305 27.097 24.2657 26.5757C23.8557 26.4922 23.4669 26.7681 23.3834 27.1654C22.8313 29.8224 22.4986 32.6984 22.3939 35.7173C22.3877 35.9235 22.4637 36.126 22.6045 36.2753C22.7453 36.4233 22.9435 36.5081 23.1454 36.5081L32.431 36.5081C32.8448 36.5081 33.1825 36.1652 33.1825 35.7451L33.1825 28.2737C33.1825 27.8613 32.8635 27.5247 32.4572 27.512Z" fill="#4228C3"/>
<path d="M9.72366 36.5082L19.2399 36.5082C19.6474 36.5082 19.9776 36.1843 19.9901 35.7705C20.0985 32.4998 20.4649 29.3986 21.0806 26.5518C21.1653 26.1621 20.9347 25.7673 20.5559 25.6547C18.2167 24.9689 16.0695 24.0997 14.1727 23.0698C13.8412 22.8901 13.4025 23.004 13.1944 23.3177C10.7792 26.968 9.31988 31.2446 8.97343 35.6832C8.95723 35.8958 9.02951 36.1058 9.17034 36.2602C9.31116 36.4158 9.51305 36.5069 9.72242 36.5069L9.72366 36.5082Z" fill="#4228C3"/>
<path d="M32.8479 12.3861C32.6398 12.2457 32.3706 12.2191 32.1413 12.3178C29.0395 13.6426 26.2217 17.6256 24.4122 23.2459C24.3449 23.4534 24.3698 23.6812 24.4795 23.8697C24.5892 24.0582 24.7736 24.1911 24.9842 24.2316C27.3882 24.7061 29.8869 24.9869 32.4055 25.0679L32.4329 25.0679C32.6286 25.0679 32.8143 24.992 32.9551 24.8528C33.1009 24.7098 33.1832 24.5099 33.1832 24.305L33.1832 13.02C33.1832 12.7632 33.0573 12.5253 32.8479 12.3849L32.8479 12.3861Z" fill="#4228C3"/>
<path d="M21.1503 49.1835C20.4886 46.2468 20.0985 43.052 19.9913 39.6864C19.9789 39.2714 19.6486 38.9475 19.2411 38.9475L9.72489 38.9475C9.51677 38.9475 9.31488 39.0373 9.17281 39.193C9.03074 39.3486 8.9597 39.5599 8.9759 39.7712C9.32609 44.292 10.8428 48.6445 13.3601 52.3568C13.4997 52.5643 13.7315 52.6871 13.9795 52.6871C14.1016 52.6871 14.2238 52.6567 14.331 52.5985C16.1691 51.6103 18.2865 50.7664 20.6244 50.0882C21.0083 49.9781 21.2401 49.5808 21.1516 49.1835L21.1503 49.1835Z" fill="#4228C3"/>
<path d="M15.9724 21.2736C17.4105 22.0214 19.1029 22.6856 21.1492 23.3056C21.219 23.3271 21.2925 23.3385 21.3648 23.3385C21.6926 23.3385 21.9804 23.1247 22.0801 22.8071C23.0696 19.6642 24.3321 16.9805 25.8338 14.8296C26.0282 14.5512 26.0182 14.1843 25.8101 13.9148C25.607 13.6554 25.2456 13.5555 24.9402 13.6807C21.4907 15.089 18.319 17.2994 15.7667 20.0716C15.606 20.2449 15.5337 20.4879 15.5748 20.7232C15.6147 20.9573 15.7642 21.1622 15.9724 21.2711L15.9724 21.2736Z" fill="#4228C3"/>
<path d="M22.1626 52.9153C22.0393 52.5294 21.6193 52.3029 21.2354 52.4206C19.3536 52.9861 17.65 53.6416 16.1745 54.3691C15.9589 54.4741 15.8056 54.6816 15.7632 54.9195C15.7209 55.1586 15.7944 55.4066 15.9589 55.5812C18.49 58.2775 21.5121 60.3576 24.9392 61.7646C25.029 61.8013 25.1237 61.8202 25.2209 61.8202C25.4527 61.8202 25.6683 61.714 25.8103 61.5305C26.016 61.2673 26.0259 60.8915 25.8353 60.617C24.361 58.5027 23.126 55.9114 22.1639 52.9153L22.1626 52.9153Z" fill="#4228C3"/>
</svg>
