<svg width="69" height="76" viewBox="0 0 69 76" fill="none" xmlns="http://www.w3.org/2000/svg">
<path d="M5.8012 17.8514C5.64542 17.883 4.59734 18.4499 4.12751 19.2419C3.81845 19.7645 3.83091 20.1656 4.18858 20.3845C4.62975 20.654 5.041 20.2326 5.80494 19.4925C6.89539 18.4322 7.79268 17.8881 9.00526 18.6283C10.4845 19.5304 10.2802 21.0576 9.52369 22.3342C8.94918 23.3034 8.01077 24.1917 7.04245 24.6661L6.12647 23.1934C6.32711 23.1503 7.57957 22.4937 8.1815 21.4764C8.50677 20.926 8.48683 20.5591 8.17527 20.368C7.68799 20.0707 7.16582 20.6793 6.34954 21.4245C5.25909 22.4215 4.47147 22.7164 3.48945 22.1166C2.11236 21.2752 2.03011 19.7025 2.81523 18.3778C3.37355 17.4364 4.26335 16.7987 4.94504 16.428L5.80245 17.8527L5.8012 17.8514Z" fill="white"/>
<path d="M11.2123 11.5498C11.0528 11.5435 9.90378 11.8446 9.26322 12.5038C8.84199 12.9378 8.76099 13.3313 9.05884 13.6286C9.42523 13.9956 9.92372 13.683 10.836 13.1453C12.142 12.3735 13.1402 12.0584 14.1472 13.0668C15.376 14.2967 14.8264 15.7315 13.7958 16.7943C13.0131 17.6003 11.8965 18.2393 10.8447 18.4708L10.2951 16.8209C10.4995 16.8272 11.8691 16.4856 12.6891 15.6404C13.1328 15.1836 13.1988 14.8205 12.9384 14.5611C12.5333 14.1562 11.8853 14.6231 10.9195 15.1533C9.62836 15.8631 8.79588 15.9618 7.97836 15.1444C6.83307 13.9993 7.11721 12.4494 8.18523 11.3486C8.94543 10.5654 9.95737 10.158 10.7064 9.95935L11.2111 11.5485L11.2123 11.5498Z" fill="white"/>
<path d="M16.9 13.8063L12.8535 7.26365L14.3415 6.3147L17.5668 11.5301L20.6886 9.53986L21.5098 10.8671L16.8988 13.8063L16.9 13.8063Z" fill="white"/>
<path d="M28.5473 2.95451C28.4164 2.86214 27.2861 2.49395 26.3988 2.70525C25.8143 2.84443 25.5401 3.13291 25.6348 3.54665C25.752 4.05529 26.3364 4.06162 27.392 4.10211C28.9012 4.15651 29.9119 4.43108 30.2334 5.8292C30.626 7.53478 29.4072 8.45083 27.9765 8.78992C26.891 9.04804 25.6099 8.98351 24.5992 8.60899L25.0017 6.9148C25.1712 7.0312 26.5084 7.48417 27.6462 7.21466C28.2619 7.06789 28.5074 6.79713 28.4251 6.43779C28.2955 5.87601 27.5017 5.91903 26.4062 5.84438C24.9419 5.74569 24.1855 5.3775 23.9237 4.24382C23.5574 2.65464 24.6117 1.49819 26.0934 1.14644C27.1477 0.895918 28.2183 1.09963 28.956 1.33876L28.5473 2.95577L28.5473 2.95451Z" fill="white"/>
<path d="M37.5341 6.43677L37.5092 8.00317L32.1616 7.91586L32.285 0.191406L37.5354 0.277444L37.5104 1.84385L34.0173 1.78691L33.9936 3.28878L36.9945 3.33813L36.9721 4.78559L33.9711 4.73625L33.945 6.37856L37.5341 6.43803L37.5341 6.43677Z" fill="white"/>
<path d="M43.9701 1.42353C45.2799 1.75883 46.1323 2.68374 46.3591 3.7744L44.8188 4.36781C44.7141 3.49983 44.086 3.09242 43.5451 2.95324C42.34 2.64451 41.4801 3.65926 41.2109 4.74612C40.9156 5.938 41.3542 7.19568 42.4459 7.47404C43.0067 7.61701 43.7532 7.50567 44.2094 6.82496L45.4057 8.01684C44.6941 9.0126 43.1862 9.29982 42.0222 9.00248C39.9747 8.47866 39.0151 6.1569 39.4911 4.23749C39.941 2.42309 41.7244 0.847834 43.9701 1.42227L43.9701 1.42353Z" fill="white"/>
<path d="M52.2157 9.34212L54.1361 5.90692L55.6653 6.78754L53.7448 10.2227C52.708 12.0776 50.9819 13.0481 48.9406 11.8714C46.8245 10.6517 46.8881 8.59941 47.8713 6.83815L49.7918 3.40295L51.3209 4.28358L49.4005 7.71878C48.8297 8.74112 48.6789 9.89251 49.7133 10.4885C50.7663 11.0958 51.6599 10.3341 52.2157 9.34085L52.2157 9.34212Z" fill="white"/>
<path d="M53.2148 14.5969L58.5998 9.13855L61.0225 11.602C62.0369 12.6332 61.8537 14.3261 60.9589 15.2333C60.2997 15.9027 59.3513 16.1709 58.5188 15.9242L57.7511 19.2088L56.3504 17.7841L57.0046 14.9221L56.1946 14.0984L54.4586 15.8584L53.2173 14.5956L53.2148 14.5969ZM57.2776 13.0001L58.4129 14.1553C58.7082 14.4552 59.2616 14.3869 59.694 13.9491C60.1339 13.5037 60.1264 12.9103 59.846 12.6256L58.7481 11.5097L57.2763 13.0014L57.2776 13.0001Z" fill="white"/>
<path d="M62.4909 24.1326L61.1674 24.9373L58.4194 20.2798L64.9472 16.3107L67.6453 20.8846L66.3218 21.6893L64.526 18.6464L63.2573 19.4182L64.7989 22.0322L63.5763 22.7762L62.0347 20.1621L60.6464 21.0061L62.4909 24.1326Z" fill="white"/>
<path d="M14.3437 59.6364L15.6174 60.6688L14.6939 63.0817L16.8237 61.6469L18.0887 62.6717L14.8858 64.6709L14.2116 66.7839L19.2015 63.56L20.692 64.7683L13.5748 68.8855L12.4183 67.9492L13.3393 64.8252L10.534 66.422L9.38623 65.492L11.7628 57.5322L13.2458 58.7342L11.2631 64.395L13.1262 63.2462L14.3437 59.6389L14.3437 59.6364Z" fill="white"/>
<path d="M24.5619 72.4825L24.0111 73.9464L19.0137 72.0106L21.728 64.7922L26.6344 66.6939L26.0835 68.1578L22.8184 66.8926L22.2913 68.2958L25.0953 69.3826L24.5868 70.7352L21.7828 69.6483L21.2058 71.1831L24.5606 72.4825L24.5619 72.4825Z" fill="white"/>
<path d="M30.9521 75.2034L27.2695 74.7656L28.1544 67.0918L32.3591 67.5916C33.4234 67.7181 33.9693 68.791 33.8571 69.7628C33.7736 70.4865 33.3175 71.1672 32.5673 71.4064C33.3997 71.7682 33.8658 72.5033 33.7462 73.5409C33.5941 74.8593 32.3591 75.3704 30.9546 75.2034L30.9521 75.2034ZM31.3933 72.0352L29.3819 71.7961L29.1887 73.4713L31.1266 73.7016C31.574 73.7547 31.9529 73.4599 32.0089 72.974C32.0638 72.4983 31.8095 72.0845 31.3946 72.0352L31.3933 72.0352ZM29.7246 68.8138L29.5414 70.403L31.255 70.6067C31.6376 70.6523 32.0189 70.4346 32.0812 69.8944C32.1398 69.387 31.8744 69.0694 31.5017 69.0251L29.7246 68.8138Z" fill="white"/>
<path d="M40.6532 69.3688C40.5311 69.2638 39.4431 68.783 38.5396 68.9032C37.9439 68.9816 37.6423 69.241 37.6971 69.6623C37.7632 70.1798 38.3452 70.2456 39.3908 70.3924C40.8875 70.5999 41.8658 70.9757 42.049 72.3991C42.272 74.1363 40.9685 74.9233 39.5129 75.1169C38.4075 75.2637 37.1401 75.0688 36.1705 74.5943L36.7375 72.9495C36.8946 73.0823 38.1807 73.6694 39.3397 73.5151C39.9665 73.4316 40.2382 73.1874 40.1908 72.8204C40.1173 72.2485 39.3235 72.2106 38.2405 72.0258C36.7924 71.7791 36.0758 71.3363 35.9275 70.1811C35.7194 68.5628 36.8821 67.519 38.3913 67.319C39.4643 67.1773 40.5099 67.4886 41.2202 67.7998L40.6544 69.3675L40.6532 69.3688Z" fill="white"/>
<path d="M45.2045 73.7909L42.8379 66.4485L44.5078 65.8931L46.8744 73.2354L45.2045 73.7909Z" fill="white"/>
<path d="M52.2233 63.7645L50.1957 64.8995L53.1256 70.2921L51.5865 71.1537L48.6566 65.7611L46.6202 66.9011L45.875 65.5296L51.478 62.3917L52.2233 63.7633L52.2233 63.7645Z" fill="white"/>
<path d="M60.5104 62.4548L61.551 63.6125L57.5992 67.2729L52.4697 61.5653L56.3492 57.9719L57.3898 59.1296L54.8089 61.521L55.8059 62.6306L58.0229 60.5771L58.9838 61.6463L56.7667 63.6998L57.8572 64.9132L60.5104 62.456L60.5104 62.4548Z" fill="white"/>
<path d="M63.6969 55.8779L61.7827 54.6898C64.8497 49.5958 66.4698 43.7288 66.4698 37.7263C66.4698 34.5961 66.0336 31.5012 65.1737 28.5278L67.3259 27.8864C68.2469 31.0685 68.713 34.3784 68.713 37.7263C68.713 44.1488 66.9782 50.4258 63.6969 55.8779Z" fill="white"/>
<path d="M5.0757 55.8779C1.79188 50.4258 0.0571289 44.1488 0.0571289 37.7263C0.0571289 34.3784 0.524465 31.0685 1.44543 27.8864L3.59767 28.5278C2.73777 31.5012 2.30034 34.5961 2.30034 37.7263C2.30034 43.73 3.92169 49.5958 6.98866 54.6898L5.07445 55.8779L5.0757 55.8779Z" fill="white"/>
<path d="M24.1839 49.1858C24.2312 49.1858 24.2798 49.1807 24.3297 49.1706C26.4807 48.7404 28.7451 48.4532 31.0755 48.3064L31.0755 40.3378C31.0755 39.8469 31.1677 39.3787 31.3335 38.9473L23.147 38.9473C22.9451 38.9473 22.747 39.0333 22.6049 39.1813C22.4641 39.3294 22.388 39.5331 22.3955 39.7381C22.5114 42.924 22.8666 45.9012 23.4523 48.5861C23.5283 48.9328 23.8362 49.1845 24.1851 49.1845L24.1839 49.1858Z" fill="white"/>
<path d="M51.4229 36.4974L51.4229 31.3414C51.4229 27.5064 48.3497 24.385 44.5723 24.385L42.6469 24.385C38.8696 24.385 35.7964 27.5064 35.7964 31.3414L35.7964 36.4974L39.221 36.4974L39.221 31.3414C39.221 29.4246 40.7576 27.862 42.6469 27.862L44.5723 27.862C46.4616 27.862 47.997 29.4233 47.997 31.3414L47.997 36.4974L51.4229 36.4974Z" fill="#34F3D0"/>
<path d="M52.3737 38.9572L34.8455 38.9572C34.094 38.9572 33.4858 39.5759 33.4858 40.3388L33.4858 54.0682C33.4858 54.8312 34.094 55.4487 34.8455 55.4487L52.3737 55.4487C53.1252 55.4487 53.7333 54.8312 53.7333 54.0682L53.7333 40.3388C53.7333 39.5759 53.1252 38.9572 52.3737 38.9572ZM45.0234 47.1257L45.0234 51.2075C45.0234 52.0008 44.3904 52.6436 43.609 52.6436C42.8276 52.6436 42.1945 52.0008 42.1945 51.2075L42.1945 47.1257C41.4854 46.6563 41.0156 45.844 41.0156 44.9178C41.0156 43.464 42.177 42.2848 43.609 42.2848C45.0409 42.2848 46.2036 43.464 46.2036 44.9178C46.2036 45.844 45.7338 46.6563 45.0234 47.1257Z" fill="#34F3D0"/>
<path d="M53.8331 36.5077L59.0461 36.5077C59.2555 36.5077 59.4574 36.4179 59.5969 36.261C59.739 36.1053 59.8113 35.8953 59.7938 35.684C59.4474 31.2493 57.9881 26.9726 55.5716 23.3186C55.3623 23.001 54.9211 22.8909 54.5921 23.0706C53.5141 23.6576 52.3451 24.1941 51.0977 24.6762C52.7863 26.3805 53.8331 28.739 53.8331 31.3416L53.8331 36.5064L53.8331 36.5077Z" fill="white"/>
<path d="M42.6465 30.3096C42.087 30.3096 41.6309 30.7727 41.6309 31.3408L41.6309 36.5056L45.5851 36.5056L45.5851 31.3408C45.5851 30.7714 45.1303 30.3096 44.5707 30.3096L42.6453 30.3096L42.6465 30.3096Z" fill="white"/>
<path d="M35.8936 24.9159C37.5847 23.0851 39.985 21.9375 42.6469 21.9375L43.8981 21.9375C42.0936 17.0105 39.4827 13.5361 36.6251 12.3151C36.3958 12.2164 36.1254 12.2417 35.9173 12.3822C35.7067 12.5239 35.582 12.7617 35.582 13.0186L35.582 24.2984C35.582 24.5047 35.6655 24.7046 35.8113 24.8476C35.8375 24.8729 35.8649 24.8944 35.8923 24.9159L35.8936 24.9159Z" fill="white"/>
<path d="M42.9306 60.616C42.7387 60.8906 42.7474 61.2676 42.953 61.5308C43.0963 61.7156 43.3119 61.8218 43.5437 61.8218C43.6397 61.8218 43.7344 61.8029 43.8229 61.7674C46.1857 60.802 48.3641 59.5051 50.3319 57.897L44.5619 57.897C44.0572 58.8738 43.5126 59.7835 42.9293 60.6173L42.9306 60.616Z" fill="white"/>
<path d="M59.0462 38.9473L55.8857 38.9473C56.0515 39.3787 56.1437 39.8469 56.1437 40.3378L56.1437 51.1887C58.2199 47.7358 59.4786 43.8173 59.7952 39.771C59.8114 39.5597 59.7403 39.3496 59.5983 39.1927C59.4574 39.0371 59.2555 38.9473 59.0462 38.9473Z" fill="white"/>
<path d="M35.582 62.4266C35.582 62.6835 35.7079 62.9213 35.9185 63.0631C36.0419 63.1453 36.1852 63.1896 36.3335 63.1896C36.4345 63.1896 36.5329 63.1693 36.6264 63.1301C38.5418 62.3064 40.3476 60.4806 41.8693 57.897L35.582 57.897L35.582 62.4266Z" fill="white"/>
<path d="M31.0744 54.0647L31.0744 50.751C29.0106 50.8813 26.9992 51.1268 25.0812 51.4899C24.8681 51.5304 24.6824 51.6632 24.5728 51.8518C24.4619 52.0415 24.4382 52.2706 24.5067 52.4806C26.2876 57.9314 29.0704 61.8107 32.1399 63.1266C32.2321 63.1658 32.3318 63.186 32.4315 63.186C32.5798 63.186 32.7231 63.1417 32.8465 63.0595C33.0571 62.9178 33.183 62.6799 33.183 62.4231L33.183 57.4999C31.9355 56.8749 31.0744 55.5704 31.0744 54.0647Z" fill="white"/>
<path d="M46.6876 22.7936C46.7872 23.1099 47.0751 23.3237 47.4029 23.3237C47.4764 23.3237 47.5487 23.3123 47.6185 23.2921C49.5352 22.7101 51.2687 22.0331 52.7729 21.2816C52.986 21.1753 53.138 20.9703 53.1804 20.735C53.2228 20.4984 53.153 20.2516 52.9922 20.0783C50.415 17.2669 47.3306 15.1159 43.8262 13.6849C43.5209 13.5584 43.1582 13.6571 42.9563 13.919C42.7482 14.1872 42.7395 14.5541 42.9339 14.8325C44.4344 16.9809 45.698 19.6595 46.69 22.7936L46.6876 22.7936Z" fill="white"/>
<path d="M32.4572 27.5119C29.5859 27.412 26.8305 27.0969 24.2657 26.5756C23.8557 26.4921 23.4669 26.7679 23.3834 27.1652C22.8313 29.8223 22.4986 32.6982 22.3939 35.7172C22.3877 35.9234 22.4637 36.1259 22.6045 36.2752C22.7453 36.4232 22.9435 36.508 23.1454 36.508L32.431 36.508C32.8448 36.508 33.1825 36.1651 33.1825 35.745L33.1825 28.2736C33.1825 27.8611 32.8635 27.5246 32.4572 27.5119Z" fill="white"/>
<path d="M9.72366 36.5082L19.2399 36.5082C19.6474 36.5082 19.9776 36.1843 19.9901 35.7705C20.0985 32.4998 20.4649 29.3986 21.0806 26.5518C21.1653 26.1621 20.9347 25.7673 20.5559 25.6547C18.2167 24.9689 16.0695 24.0997 14.1727 23.0698C13.8412 22.8901 13.4025 23.004 13.1944 23.3177C10.7792 26.968 9.31988 31.2446 8.97343 35.6832C8.95723 35.8958 9.02951 36.1058 9.17034 36.2602C9.31116 36.4158 9.51305 36.5069 9.72242 36.5069L9.72366 36.5082Z" fill="white"/>
<path d="M32.8479 12.3863C32.6398 12.2458 32.3706 12.2193 32.1413 12.3179C29.0395 13.6427 26.2217 17.6257 24.4122 23.2461C24.3449 23.4536 24.3698 23.6813 24.4795 23.8698C24.5892 24.0584 24.7736 24.1912 24.9842 24.2317C27.3882 24.7062 29.8869 24.9871 32.4055 25.068L32.4329 25.068C32.6286 25.068 32.8143 24.9921 32.9551 24.8529C33.1009 24.71 33.1832 24.5101 33.1832 24.3051L33.1832 13.0202C33.1832 12.7633 33.0573 12.5254 32.8479 12.385L32.8479 12.3863Z" fill="white"/>
<path d="M21.1503 49.1833C20.4886 46.2466 20.0985 43.0518 19.9913 39.6862C19.9789 39.2712 19.6486 38.9473 19.2411 38.9473L9.72489 38.9473C9.51677 38.9473 9.31488 39.0371 9.17281 39.1927C9.03074 39.3484 8.9597 39.5597 8.9759 39.771C9.32609 44.2918 10.8428 48.6443 13.3601 52.3566C13.4997 52.5641 13.7315 52.6868 13.9795 52.6868C14.1016 52.6868 14.2238 52.6564 14.331 52.5982C16.1691 51.6101 18.2865 50.7661 20.6244 50.0879C21.0083 49.9779 21.2401 49.5806 21.1516 49.1833L21.1503 49.1833Z" fill="white"/>
<path d="M15.9724 21.2736C17.4105 22.0214 19.1029 22.6856 21.1492 23.3056C21.219 23.3271 21.2925 23.3385 21.3648 23.3385C21.6926 23.3385 21.9804 23.1247 22.0801 22.8071C23.0696 19.6642 24.3321 16.9805 25.8338 14.8296C26.0282 14.5512 26.0182 14.1843 25.8101 13.9148C25.607 13.6554 25.2456 13.5555 24.9402 13.6807C21.4907 15.089 18.319 17.2994 15.7667 20.0716C15.606 20.2449 15.5337 20.4879 15.5748 20.7232C15.6147 20.9573 15.7642 21.1622 15.9724 21.2711L15.9724 21.2736Z" fill="white"/>
<path d="M22.1626 52.9152C22.0393 52.5293 21.6193 52.3028 21.2354 52.4204C19.3536 52.986 17.65 53.6414 16.1745 54.369C15.9589 54.474 15.8056 54.6815 15.7632 54.9194C15.7209 55.1585 15.7944 55.4065 15.9589 55.5811C18.49 58.2774 21.5121 60.3575 24.9392 61.7644C25.029 61.8011 25.1237 61.8201 25.2209 61.8201C25.4527 61.8201 25.6683 61.7138 25.8103 61.5304C26.016 61.2672 26.0259 60.8914 25.8353 60.6168C24.361 58.5026 23.126 55.9113 22.1639 52.9152L22.1626 52.9152Z" fill="white"/>
</svg>
